<svg id="Capa_1" enable-background="new 0 0 511.998 511.998" height="512" viewBox="0 0 511.998 511.998" width="512" xmlns="http://www.w3.org/2000/svg"><g><path d="m380.248 473.434h-31.062c0-17.155-13.907-31.062-31.062-31.062v-31.062h-124.249v31.062c-17.155 0-31.062 13.907-31.062 31.062h-31.063c-17.155 0-31.062 13.907-31.062 31.062h31.062 31.062 186.374 31.062 31.062c0-17.155-13.907-31.062-31.062-31.062z" fill="#eaf6ff"/><path d="m224.937 411.309 31.062 62.078 31.062-62.078z" fill="#ffb850"/><path d="m391.744 380.247-62.125-31.062v-123.187l53.154 52.245c5.738 5.64 8.97 13.349 8.97 21.395v80.609z" fill="#f07281"/><path d="m120.256 380.247 62.125-31.062v-123.187l-53.154 52.245c-5.738 5.64-8.97 13.349-8.97 21.395v80.609z" fill="#f07281"/><path d="m349.189 227.768c0 30.95-3.92 61.7-11.62 91.06l-7.95 30.36-8.13 31.06h-130.97l-8.14-31.06-7.95-30.36c-3.85-14.68-6.75-29.71-8.7-44.93-1.94-15.23-2.92-30.66-2.92-46.13 0-50.61 10.47-99.83 29.88-143 9.89-21.98 22.09-42.4 36.41-60.62l3.3-4.21c13.03-16.58 34.17-16.58 47.2 0l3.3 4.21c14.32 18.22 26.52 38.64 36.41 60.62 4.76 10.59 8.99 21.55 12.65 32.8 11.27 34.61 17.23 72.01 17.23 110.2z" fill="#eaf6ff"/><path d="m212.379 349.188 8.14 31.06h-30l-8.14-31.06-7.95-30.36c-3.85-14.68-6.75-29.71-8.7-44.93-1.94-15.23-2.92-30.66-2.92-46.13 0-50.61 10.47-99.83 29.88-143h30c-19.41 43.17-29.88 92.39-29.88 143 0 15.47.98 30.9 2.92 46.13 1.95 15.22 4.85 30.25 8.7 44.93z" fill="#d8ecfe"/><path d="m319.309 84.768h-126.62c9.89-21.98 22.09-42.4 36.41-60.62l3.3-4.21c10.44-13.29 26.09-15.93 38.6-7.91 3.1 1.98 6.01 4.62 8.6 7.91l3.3 4.21c14.32 18.22 26.52 38.64 36.41 60.62z" fill="#f07281"/><path d="m270.999 12.028c-3.1 1.98-6.01 4.62-8.6 7.91l-3.3 4.21c-14.32 18.22-26.52 38.64-36.41 60.62h-30c9.89-21.98 22.09-42.4 36.41-60.62l3.3-4.21c10.44-13.29 26.09-15.93 38.6-7.91z" fill="#eb5569"/><path d="m329.619 349.188-8.13 31.06h-130.97l-8.14-31.06z" fill="#88b4f5"/><path d="m220.519 380.248h-30l-8.14-31.06h30z" fill="#6ea2f2"/><path d="m190.514 380.247-27.702 31.062h186.374l-27.702-31.062z" fill="#f07281"/><path d="m220.519 380.248-27.71 31.06h-30l27.71-31.06z" fill="#eb5569"/><circle cx="255.999" cy="224.935" fill="#f07281" r="62.124"/><path d="m265.999 286.248c-3.25.53-6.6.81-10 .81-34.26 0-62.12-27.87-62.12-62.12 0-34.26 27.86-62.13 62.12-62.13 3.4 0 6.75.28 10 .81-29.52 4.79-52.12 30.46-52.12 61.32 0 30.85 22.6 56.52 52.12 61.31z" fill="#eb5569"/><circle cx="255.999" cy="224.935" fill="#88b4f5" r="31.024"/><path d="m265.999 254.308c-3.14 1.07-6.5 1.65-10 1.65-17.11 0-31.02-13.92-31.02-31.02 0-17.11 13.91-31.03 31.02-31.03 3.5 0 6.86.58 10 1.65-12.22 4.17-21.02 15.77-21.02 29.38 0 13.6 8.8 25.2 21.02 29.37z" fill="#6ea2f2"/><g><path d="m193.937 216.928c4.012 1.017 8.095-1.412 9.113-5.427 6.147-24.254 27.922-41.193 52.949-41.193 30.117 0 54.62 24.507 54.62 54.63 0 30.118-24.503 54.62-54.62 54.62-24.115 0-45.676-16.169-52.43-39.321-1.161-3.977-5.324-6.259-9.301-5.099s-6.26 5.324-5.1 9.3c8.61 29.51 36.092 50.12 66.83 50.12 38.389 0 69.62-31.231 69.62-69.62 0-38.394-31.231-69.63-69.62-69.63-31.899 0-59.652 21.592-67.49 52.507-1.017 4.016 1.413 8.096 5.429 9.113z"/><path d="m294.523 224.935c0-21.242-17.282-38.523-38.524-38.523s-38.524 17.281-38.524 38.523 17.282 38.523 38.524 38.523 38.524-17.282 38.524-38.523zm-62.048 0c0-12.971 10.553-23.523 23.524-23.523s23.524 10.552 23.524 23.523-10.553 23.523-23.524 23.523-23.524-10.553-23.524-23.523z"/><path d="m407.513 477.235c-7.285-7.285-16.968-11.297-27.264-11.297h-24.284c-2.979-15.209-14.866-27.3-30.346-30.342v-16.788h23.57c7.935 0 10.435-6.435 5.598-12.492l-25.028-28.063 4.774-18.223 53.852 26.926c4.55 2.275 10.854-1.002 10.854-6.708v-80.61c0-9.991-4.088-19.737-11.213-26.739l-31.615-31.075c3.017-80.486-19.858-163.344-70.916-226.519-7.755-9.869-18.23-15.305-29.496-15.305s-21.741 5.436-29.497 15.305c-51.031 63.142-73.931 146.079-70.916 226.519l-31.614 31.074c-7.126 7.002-11.214 16.749-11.214 26.74v80.61c0 5.706 6.304 8.983 10.854 6.708l53.852-26.926 4.775 18.231-25.029 28.055c-4.838 6.058-2.213 12.493 5.597 12.493h23.57v16.786c-15.385 3.009-27.355 15.061-30.347 30.344h-24.283c-21.262 0-38.56 17.298-38.56 38.56 0 4.142 3.357 7.5 7.5 7.5h310.619c4.143 0 7.5-3.358 7.5-7.5.003-10.297-4.009-19.979-11.293-27.264zm-91.817-104.488h-119.394l-4.207-16.059h127.808zm61.816-89.149c4.275 4.201 6.728 10.047 6.728 16.041v68.475l-45.822-22.911c7.478-27.504 14.136-55.114 16.727-83.59zm-179.8-191.33h63.667c4.143 0 7.5-3.358 7.5-7.5s-3.357-7.5-7.5-7.5h-56.761c9.267-18.734 20.849-36.208 33.678-52.694 10.078-12.951 24.203-13.076 35.407 0 13.573 15.841 24.427 33.995 33.677 52.694h-13.322c-4.143 0-7.5 3.358-7.5 7.5s3.357 7.5 7.5 7.5h20.227c34.576 80.453 32.476 166.425 9.547 249.42h-135.666c-22.921-83.153-25.087-168.831 9.546-249.42zm-69.953 275.845v-68.475c0-5.993 2.452-11.84 6.729-16.042l22.366-21.985c2.588 28.437 9.2 56.118 16.728 83.59zm66.119 19.635h124.251l14.322 16.06h-59.162c-4.143 0-7.5 3.358-7.5 7.5s3.357 7.5 7.5 7.5h1.634l-18.924 37.818-18.923-37.818h3.533c4.143 0 7.5-3.358 7.5-7.5s-3.357-7.5-7.5-7.5h-61.059zm-84.465 109.25c3.139-9.326 11.966-16.06 22.336-16.06h31.06c4.143 0 7.5-3.358 7.5-7.5 0-12.661 9.902-23.004 22.554-23.547 4.116-.184 8.517-2.724 8.517-7.522v-23.56h18.925l28.989 57.935c4.471 5.525 8.943 5.525 13.414 0l28.989-57.935h18.924v23.56c0 6.026 5.513 7.175 10.012 7.628 12.005 1.269 21.059 11.347 21.059 23.441 0 4.142 3.357 7.5 7.5 7.5h31.06c11.252.873 18.7 6.226 22.345 16.06z"/></g></g></svg>